<!-- Generator: Adobe Illustrator 19.1.0, SVG Export Plug-In . SVG Version: 6.00 Build 0)  -->
<svg version="1.1" id="Capa_1" xmlns="http://www.w3.org/2000/svg" xmlns:xlink="http://www.w3.org/1999/xlink" x="0px" y="0px"
	 viewBox="0 0 327.254 327.254" style="enable-background:new 0 0 327.254 327.254;" xml:space="preserve">
<g>
	<path d="M313.649,198.782c7.757-11.061,11.999-24.326,11.999-37.912c0-19.505-8.824-38.163-23.773-50.656
		c0.501-3.863,0.752-7.507,0.752-11.061c0-49.107-39.956-89.057-89.07-89.057c-29.409,0-57.032,14.769-73.536,38.934
		c-8.284-4.28-17.462-6.51-26.883-6.51c-30.482,0-55.618,23.349-58.458,53.323C23.137,101.235,0,128.273,0,160.877
		c0,31.222,22.05,57.732,51.73,64.345c-4.19,8.483-6.607,18.002-6.607,28.092c0,35.2,28.638,63.844,63.838,63.844h143.518
		c2.307,0,4.595-0.135,6.755-0.379c38.773-3.715,68.022-35.939,68.022-74.937C327.254,225.82,322.197,210.999,313.649,198.782z
		 M59.075,213.544c-26.176-3.438-46.215-25.945-46.215-52.674c0-27.783,20.868-50.547,48.542-52.944l5.861-0.771v-5.893
		c0-25.309,20.579-45.894,45.881-45.894c9.081,0,17.873,2.661,25.425,7.693l5.688,3.792l3.432-5.906
		c13.631-23.439,38.869-38.002,65.875-38.002c42.025,0,76.216,34.184,76.216,76.203c0,3.972-0.379,8.136-1.157,12.732l-0.656,3.895
		l3.175,2.346c13.76,10.167,21.652,25.752,21.652,42.751c0,9.769-2.712,19.332-7.731,27.616
		c-6.832-6.832-14.814-12.166-23.509-15.894c-0.129-0.051-0.225-0.116-0.353-0.161c-1.909-0.803-3.882-1.504-5.861-2.147
		c-0.379-0.129-0.726-0.276-1.105-0.405c-1.806-0.553-3.638-0.99-5.488-1.407c-0.591-0.135-1.17-0.328-1.755-0.45
		c-1.767-0.353-3.567-0.578-5.36-0.81c-0.701-0.096-1.382-0.238-2.095-0.315c-2.5-0.251-5.032-0.386-7.597-0.386h-1.157
		c-14.313-20.444-37.378-32.539-62.411-32.539c-34.159,0-64.223,23.04-73.388,55.496h-6.028c-2.352,0-4.679,0.148-6.96,0.405
		c-0.527,0.051-1.035,0.161-1.555,0.225c-1.793,0.251-3.573,0.54-5.315,0.932c-0.546,0.116-1.08,0.276-1.62,0.411
		c-1.716,0.424-3.4,0.906-5.058,1.472c-0.527,0.174-1.041,0.379-1.562,0.578c-1.645,0.604-3.258,1.266-4.839,2.012
		c-0.501,0.238-1.003,0.476-1.497,0.726c-1.575,0.79-3.104,1.645-4.608,2.545c-0.456,0.276-0.925,0.553-1.375,0.842
		c-1.568,1.003-3.078,2.082-4.55,3.226c-0.328,0.251-0.668,0.476-0.99,0.739c-3.586,2.886-6.845,6.138-9.743,9.73
		C59.217,213.397,59.133,213.474,59.075,213.544z M257.915,304.002c-1.78,0.186-3.605,0.302-5.437,0.302H108.954
		c-28.111,0-50.984-22.873-50.984-50.99c0-10.482,3.188-20.232,8.631-28.342l0.341-0.463c0.212-0.315,0.456-0.604,0.675-0.919
		c0.99-1.369,2.044-2.686,3.162-3.953c0.276-0.315,0.559-0.617,0.842-0.919c1.093-1.183,2.237-2.307,3.426-3.361
		c0.238-0.212,0.463-0.437,0.707-0.656c2.976-2.558,6.221-4.769,9.672-6.575c0.122-0.051,0.238-0.103,0.353-0.161
		c1.568-0.803,3.175-1.517,4.82-2.159c0.353-0.129,0.707-0.251,1.06-0.392c1.44-0.514,2.892-0.964,4.377-1.356
		c0.45-0.116,0.9-0.238,1.356-0.353c1.446-0.341,2.905-0.591,4.39-0.803c0.456-0.064,0.919-0.161,1.382-0.212
		c1.915-0.225,3.85-0.353,5.791-0.353h16.279l1.067-5.122c6.093-29.184,32.198-50.374,62.07-50.374
		c21.806,0,41.826,11.048,53.548,29.551l1.896,2.988h8.124c2.275,0,4.505,0.135,6.729,0.379c0.765,0.077,1.491,0.225,2.249,0.341
		c1.446,0.212,2.873,0.424,4.28,0.726c0.919,0.199,1.819,0.463,2.725,0.701c1.195,0.315,2.384,0.643,3.567,1.015
		c0.964,0.328,1.934,0.688,2.886,1.067c1.054,0.405,2.095,0.829,3.123,1.292c0.977,0.437,1.934,0.906,2.886,1.395
		c0.977,0.501,1.934,1.028,2.886,1.594c0.919,0.527,1.819,1.067,2.712,1.645c0.99,0.656,1.96,1.356,2.911,2.057
		c0.765,0.566,1.542,1.105,2.282,1.71c1.33,1.08,2.609,2.237,3.869,3.438c0.302,0.289,0.63,0.553,0.932,0.842
		c1.568,1.568,3.066,3.239,4.467,4.981c8.708,10.733,13.959,24.403,13.959,39.274C314.401,274.188,290.146,300.898,257.915,304.002z
		"/>
</g>
<g>
</g>
<g>
</g>
<g>
</g>
<g>
</g>
<g>
</g>
<g>
</g>
<g>
</g>
<g>
</g>
<g>
</g>
<g>
</g>
<g>
</g>
<g>
</g>
<g>
</g>
<g>
</g>
<g>
</g>
</svg>
