<?xml version="1.0" encoding="iso-8859-1"?>
<!-- Generator: Adobe Illustrator 19.1.0, SVG Export Plug-In . SVG Version: 6.00 Build 0)  -->
<svg version="1.1" id="Capa_1" xmlns="http://www.w3.org/2000/svg" xmlns:xlink="http://www.w3.org/1999/xlink" x="0px" y="0px"
	 viewBox="0 0 312.19 312.19" style="enable-background:new 0 0 312.19 312.19;" xml:space="preserve">
<g>
	<path d="M174.119,27.552c-0.135,8.136-8.136,14.73-18.04,14.73c-9.878,0-17.873-6.594-18.027-14.73h-0.109l0.096-0.154
		l-0.006-0.039c0-5.264,13.49-27.443,18.047-27.359c4.569,0.051,18.053,22.095,18.053,27.359v0.039l0.116,0.154H174.119z
		 M284.147,173.75l0.161-0.103c0,0,0.026,0,0.051,0c5.257,0,27.301-13.484,27.353-18.053c0.064-4.569-22.095-18.047-27.353-18.047
		c-0.026,0-0.051,0.006-0.051,0.006l-0.161-0.103v0.116c-8.124,0.135-14.711,8.149-14.711,18.027c0,9.897,6.588,17.905,14.711,18.04
		V173.75z M28.044,137.457l-0.161,0.116c-0.006,0-0.026,0-0.039,0c-5.257,0-27.314,13.477-27.365,18.047
		c-0.071,4.563,22.102,18.059,27.365,18.059c0.013,0,0.032-0.013,0.039-0.013l0.161,0.09v-0.103
		c8.136-0.148,14.724-8.162,14.724-18.034c0-9.897-6.588-17.892-14.724-18.034V137.457z M78.372,52.231l-0.174-0.039
		c-0.006-0.019-0.026-0.032-0.032-0.032c-3.721-3.721-28.844-9.775-32.115-6.588c-3.278,3.188,2.866,28.394,6.581,32.115
		c0.026,0.013,0.026,0.013,0.045,0.026l0.045,0.167l0.064-0.064c5.861,5.656,16.183,4.647,23.169-2.339
		c6.992-6.999,7.989-17.307,2.333-23.156L78.372,52.231z M259.467,77.881l0.039-0.167c0.026-0.006,0.039-0.026,0.051-0.039
		c3.702-3.715,9.769-28.844,6.562-32.115c-3.175-3.265-28.381,2.866-32.096,6.588c-0.026,0.013-0.026,0.026-0.026,0.051
		l-0.174,0.039l0.064,0.064c-5.649,5.861-4.647,16.176,2.346,23.162c6.992,6.999,17.295,7.989,23.149,2.333L259.467,77.881z
		 M283.452,216.244c0-3.554-2.873-6.427-6.427-6.427H44.053c-3.554,0-6.427,2.873-6.427,6.427c0,3.554,2.873,6.427,6.427,6.427
		h232.973C280.58,222.671,283.452,219.798,283.452,216.244z M262.565,246.084c0-3.554-2.873-6.427-6.427-6.427H15.132
		c-3.554,0-6.427,2.873-6.427,6.427s2.873,6.427,6.427,6.427h241.006C259.692,252.511,262.565,249.631,262.565,246.084z
		 M297.109,275.924c0-3.554-2.873-6.427-6.427-6.427H102.698c-3.554,0-6.427,2.873-6.427,6.427s2.873,6.427,6.427,6.427h187.985
		C294.237,282.35,297.109,279.478,297.109,275.924z M281.846,305.763c0-3.554-2.873-6.427-6.427-6.427H85.827
		c-3.554,0-6.427,2.873-6.427,6.427s2.873,6.427,6.427,6.427h189.592C278.973,312.19,281.846,309.317,281.846,305.763z
		 M156.098,76.602c-43.567,0-79.011,35.438-79.011,78.999c0,7.552,1.067,14.975,3.175,22.16h151.66
		c2.108-7.179,3.162-14.595,3.162-22.16C235.09,112.039,199.653,76.602,156.098,76.602 M156.098,63.748
		c50.733,0,91.846,41.119,91.846,91.852c0,12.404-2.487,24.216-6.941,35.013H71.181c-4.454-10.797-6.947-22.61-6.947-35.013
		C64.233,104.867,105.371,63.748,156.098,63.748L156.098,63.748z"/>
</g>
<g>
</g>
<g>
</g>
<g>
</g>
<g>
</g>
<g>
</g>
<g>
</g>
<g>
</g>
<g>
</g>
<g>
</g>
<g>
</g>
<g>
</g>
<g>
</g>
<g>
</g>
<g>
</g>
<g>
</g>
</svg>
