<?xml version="1.0" encoding="iso-8859-1"?>
<!-- Generator: Adobe Illustrator 19.1.0, SVG Export Plug-In . SVG Version: 6.00 Build 0)  -->
<svg version="1.1" id="Capa_1" xmlns="http://www.w3.org/2000/svg" xmlns:xlink="http://www.w3.org/1999/xlink" x="0px" y="0px"
	 viewBox="0 0 325.641 325.641" style="enable-background:new 0 0 325.641 325.641;" xml:space="preserve">
<g>
	<path d="M301.868,113.398c0.501-3.837,0.752-7.481,0.752-11.061c0-49.107-39.956-89.057-89.069-89.057
		c-29.409,0-57.025,14.769-73.529,38.94c-8.291-4.274-17.468-6.517-26.89-6.517c-30.482,0-55.618,23.355-58.458,53.33
		C23.137,104.433,0,131.458,0,164.055c0,36.421,29.634,66.049,66.061,66.049h193.531c36.427,0,66.049-29.628,66.049-66.049
		C325.648,144.247,317.036,125.995,301.868,113.398z M259.593,217.249H66.068c-29.338,0-53.208-23.863-53.208-53.195
		c0-27.32,21.318-50.573,48.548-52.938l5.855-0.771v-5.893c0-25.309,20.579-45.894,45.881-45.894c9.081,0,17.873,2.661,25.431,7.699
		l5.688,3.792l3.432-5.913c13.631-23.439,38.863-38.002,65.869-38.002c42.025,0,76.216,34.184,76.216,76.203
		c0,4.01-0.379,8.169-1.144,12.719l-0.668,3.901l3.175,2.346c13.76,10.161,21.652,25.739,21.652,42.738
		C312.794,193.393,288.931,217.249,259.593,217.249z M87.456,290.136l-0.051,15.816c-0.013,3.548-2.886,6.408-6.427,6.408
		c-0.006,0-0.013,0-0.019,0c-3.554-0.013-6.42-2.898-6.408-6.446l0.051-15.816c0.013-3.548,2.886-6.408,6.427-6.408
		c0.006,0,0.013,0,0.019,0C84.596,283.703,87.469,286.595,87.456,290.136z M87.578,251.575l-0.064,19.281
		c-0.013,3.548-2.886,6.408-6.427,6.408c-0.006,0-0.013,0-0.019,0c-3.554-0.013-6.42-2.898-6.408-6.446l0.064-19.281
		c0.013-3.554,2.918-6.433,6.446-6.408C84.725,245.142,87.591,248.034,87.578,251.575z M130.773,251.569l-0.013,6.427
		c-0.006,3.548-2.879,6.414-6.427,6.414c-0.006,0-0.006,0-0.013,0c-3.554-0.006-6.42-2.886-6.414-6.44l0.013-6.427
		c0.006-3.548,2.879-6.414,6.427-6.414c0.006,0,0.006,0,0.013,0C127.913,245.136,130.78,248.021,130.773,251.569z M130.67,283.125
		l-0.013,6.427c-0.006,3.548-2.879,6.414-6.427,6.414c-0.006,0-0.006,0-0.013,0c-3.554-0.006-6.42-2.886-6.414-6.44l0.013-6.427
		c0.006-3.548,2.879-6.414,6.427-6.414c0.006,0,0.006,0,0.013,0C127.81,276.691,130.677,279.577,130.67,283.125z M173.897,290.136
		l-0.051,15.816c-0.013,3.548-2.886,6.408-6.427,6.408h-0.013c-3.554-0.013-6.427-2.898-6.414-6.446l0.051-15.816
		c0.013-3.548,2.886-6.408,6.427-6.408c0.013,0,0.013,0,0.026,0C171.05,283.703,173.91,286.595,173.897,290.136z M174.026,251.575
		l-0.064,19.281c-0.013,3.548-2.886,6.408-6.427,6.408h-0.013c-3.554-0.013-6.427-2.898-6.414-6.446l0.064-19.281
		c0.013-3.548,2.886-6.408,6.427-6.408c0.013,0,0.013,0,0.026,0C171.179,245.142,174.039,248.034,174.026,251.575z M217.233,251.582
		l-0.026,6.427c-0.013,3.541-2.886,6.401-6.427,6.401c0,0-0.013,0-0.026,0c-3.554-0.013-6.414-2.898-6.401-6.453l0.026-6.427
		c0.013-3.541,2.886-6.401,6.427-6.401c0.013,0,0.026,0,0.026,0C214.38,245.142,217.246,248.034,217.233,251.582z M217.131,283.137
		l-0.026,6.427c-0.013,3.541-2.886,6.401-6.427,6.401c0,0-0.013,0-0.026,0c-3.554-0.013-6.414-2.898-6.401-6.453l0.026-6.427
		c0.013-3.541,2.886-6.401,6.427-6.401c0.013,0,0.026,0,0.026,0C214.284,276.698,217.143,279.59,217.131,283.137z M260.357,290.136
		l-0.051,15.816c-0.013,3.548-2.886,6.408-6.427,6.408h-0.013c-3.554-0.013-6.427-2.898-6.414-6.446l0.051-15.816
		c0.013-3.548,2.886-6.408,6.427-6.408c0.013,0,0.013,0,0.026,0C257.51,283.703,260.37,286.595,260.357,290.136z M260.473,251.575
		l-0.051,19.281c-0.013,3.541-2.886,6.408-6.427,6.408c-0.013,0-0.013,0-0.026,0c-3.554-0.013-6.414-2.892-6.401-6.446l0.051-19.281
		c0.013-3.548,2.886-6.408,6.427-6.408c0.013,0,0.013,0,0.026,0C257.626,245.142,260.486,248.028,260.473,251.575z"/>
</g>
<g>
</g>
<g>
</g>
<g>
</g>
<g>
</g>
<g>
</g>
<g>
</g>
<g>
</g>
<g>
</g>
<g>
</g>
<g>
</g>
<g>
</g>
<g>
</g>
<g>
</g>
<g>
</g>
<g>
</g>
</svg>
