<?xml version="1.0" encoding="iso-8859-1"?>
<!-- Generator: Adobe Illustrator 19.1.0, SVG Export Plug-In . SVG Version: 6.00 Build 0)  -->
<svg version="1.1" id="Capa_1" xmlns="http://www.w3.org/2000/svg" xmlns:xlink="http://www.w3.org/1999/xlink" x="0px" y="0px"
	 viewBox="0 0 328.135 328.135" style="enable-background:new 0 0 328.135 328.135;" xml:space="preserve">
<g>
	<path d="M304.418,240.73c-11.118,2.815-22.533,4.235-33.908,4.235c-62.244,0-117.103-41.999-133.408-102.142
		c-12.699-46.871-0.347-95.959,33.053-131.307L181.035,0l-15.829,0.681c-12.192,0.521-24.281,2.391-35.92,5.54
		C42.126,29.865-9.565,120.002,14.06,207.175c19.306,71.222,84.269,120.959,157.984,120.959c14.435,0,28.882-1.934,42.944-5.746
		c40.264-10.919,74.526-36.511,96.473-72.051l8.336-13.49L304.418,240.73z M211.621,309.992
		c-12.963,3.509-26.279,5.289-39.576,5.289c-67.925,0-127.785-45.836-145.581-111.473C4.69,123.479,52.319,40.412,132.648,18.644
		c5.797-1.568,11.716-2.796,17.706-3.663c-28.516,37.276-38.124,85.22-25.656,131.217c17.815,65.727,77.784,111.628,145.812,111.628
		c7.095,0,14.197-0.508,21.247-1.51C271.692,282.453,243.723,301.277,211.621,309.992z M178.78,83.041l31.517-8.953l9.64-31.299
		l8.959,31.504l31.312,9.647L228.684,92.9l-9.64,31.305l-8.953-31.504L178.78,83.041z M247.322,136.988l21.909-7.172l5.9-22.275
		l7.172,21.896l22.282,5.926l-21.903,7.16l-5.919,22.275l-7.159-21.896L247.322,136.988z"/>
</g>
<g>
</g>
<g>
</g>
<g>
</g>
<g>
</g>
<g>
</g>
<g>
</g>
<g>
</g>
<g>
</g>
<g>
</g>
<g>
</g>
<g>
</g>
<g>
</g>
<g>
</g>
<g>
</g>
<g>
</g>
</svg>
