<?xml version="1.0" encoding="iso-8859-1"?>
<!-- Generator: Adobe Illustrator 19.1.0, SVG Export Plug-In . SVG Version: 6.00 Build 0)  -->
<svg version="1.1" id="Capa_1" xmlns="http://www.w3.org/2000/svg" xmlns:xlink="http://www.w3.org/1999/xlink" x="0px" y="0px"
	 viewBox="0 0 329.536 329.536" style="enable-background:new 0 0 329.536 329.536;" xml:space="preserve">
<g>
	<path d="M314.144,164.421c-7.32,1.851-14.827,2.783-22.295,2.783c-40.92,0-76.987-27.61-87.701-67.141
		c-8.361-30.804-0.225-63.073,21.729-86.319l10.881-11.517l-15.829,0.681c-8.4,0.366-16.684,1.639-24.615,3.798
		c-28.946,7.847-53.105,26.491-68.022,52.507c-13.342,23.272-17.796,49.949-12.989,76.023c-4.968-0.977-10.032-1.626-15.193-1.626
		c-43.953,0-79.706,35.752-79.706,79.686c0,3.053,0.206,6.189,0.63,9.505C7.796,234.017,0,250.643,0,268.015
		c0,32.693,26.601,59.294,59.3,59.294h171.584c32.7,0,59.3-26.601,59.3-59.294c0-19.827-9.537-37.34-24.493-48.092
		c22.976-8.734,42.436-24.73,55.509-45.9l8.336-13.49L314.144,164.421z M277.311,268.021c0,25.604-20.836,46.44-46.447,46.44H59.288
		c-25.605,0-46.447-20.829-46.447-46.44c0-14.846,6.89-28.445,18.901-37.314l3.175-2.346l-0.656-3.888
		c-0.681-4.055-1.015-7.706-1.015-11.17c0-36.851,29.988-66.833,66.852-66.833c7.757,0,15.302,1.491,22.423,4.062
		c1.652,0.591,3.284,1.221,4.878,1.934c0.251,0.116,0.482,0.251,0.726,0.36c2.725,1.26,5.328,2.719,7.841,4.319
		c0.983,0.63,1.96,1.26,2.905,1.934c0.983,0.701,1.947,1.42,2.892,2.166c1.549,1.24,3.059,2.532,4.492,3.914
		c0.598,0.566,1.176,1.157,1.755,1.748c1.44,1.485,2.821,3.04,4.132,4.666c0.476,0.591,0.938,1.189,1.395,1.793
		c1.542,2.057,3.027,4.177,4.338,6.433l3.432,5.906l5.688-3.792c6.581-4.383,14.223-6.703,22.134-6.703
		c22.031,0,39.956,17.924,39.943,40.193v5.887v0.006l5.861,0.508c1.87,0.161,3.753,0.456,5.63,0.874
		c0.064,0.013,0.129,0.026,0.186,0.039c1.87,0.418,3.74,0.951,5.591,1.607l1.742,0.623l0.084-0.019
		C265.448,231.755,277.311,248.452,277.311,268.021z M251.681,211.003c-0.88,0.238-1.767,0.405-2.648,0.585l-0.077,0.019
		c-2.371-0.746-4.788-1.407-7.294-1.857c-0.951-9.332-4.396-17.918-9.576-25.174c-0.353-0.495-0.668-1.015-1.041-1.497
		c-0.308-0.398-0.656-0.758-0.97-1.15c-0.681-0.842-1.356-1.697-2.089-2.494c-0.244-0.264-0.514-0.501-0.765-0.758
		c-0.848-0.887-1.703-1.761-2.603-2.59c-0.019-0.013-0.039-0.026-0.058-0.045c-3.503-3.175-7.429-5.893-11.69-8.04
		c-0.013,0-0.019-0.006-0.026-0.013c-4.274-2.153-8.882-3.747-13.728-4.679c-3.233-0.623-6.562-0.945-9.981-0.945
		c-8.246,0-16.292,1.909-23.586,5.566c-1.62-2.333-3.406-4.531-5.264-6.665c-0.443-0.514-0.88-1.035-1.337-1.53
		c-1.755-1.915-3.593-3.747-5.521-5.482c-0.668-0.598-1.35-1.157-2.037-1.729c-1.459-1.228-2.956-2.397-4.505-3.515
		c-1.183-0.861-2.384-1.677-3.612-2.474c-1.414-0.913-2.847-1.787-4.319-2.609c-1.247-0.701-2.513-1.369-3.798-2.005
		c-0.945-0.463-1.922-0.88-2.892-1.305c-1.003-0.45-1.979-0.951-3.001-1.356C116.12,86.926,147.374,33.301,199.682,19.123
		c2.172-0.591,4.383-1.112,6.613-1.549c-17.185,24.93-22.642,55.997-14.55,85.856c12.224,45.123,53.388,76.634,100.104,76.634
		c3.136,0,6.279-0.135,9.402-0.424C288.334,194.781,271.161,205.726,251.681,211.003z"/>
</g>
<g>
</g>
<g>
</g>
<g>
</g>
<g>
</g>
<g>
</g>
<g>
</g>
<g>
</g>
<g>
</g>
<g>
</g>
<g>
</g>
<g>
</g>
<g>
</g>
<g>
</g>
<g>
</g>
<g>
</g>
</svg>
