<?xml version="1.0" encoding="iso-8859-1"?>
<!-- Generator: Adobe Illustrator 19.1.0, SVG Export Plug-In . SVG Version: 6.00 Build 0)  -->
<svg version="1.1" id="Capa_1" xmlns="http://www.w3.org/2000/svg" xmlns:xlink="http://www.w3.org/1999/xlink" x="0px" y="0px"
	 viewBox="0 0 323.058 323.058" style="enable-background:new 0 0 323.058 323.058;" xml:space="preserve">
<g>
	<path d="M307.501,188.383c-8.586,2.172-17.391,3.271-26.17,3.271c-48.034,0-90.368-32.411-102.951-78.819
		c-9.794-36.17-0.264-74.044,25.508-101.325L214.762,0l-15.823,0.675c-9.627,0.405-19.178,1.883-28.394,4.383
		c-25.322,6.864-47.398,21.022-64.371,40.977c-7.809-8.644-18.85-13.683-30.74-13.683c-17.777,0-33.522,11.465-39.255,27.918h-0.694
		c-19.46,0-35.296,15.836-35.296,35.303s15.836,35.303,35.296,35.303h39.583c0.077,11.151,1.491,22.224,4.415,32.989
		c1.138,4.21,2.712,8.586,4.563,13.226C68.61,189.2,58.635,207.966,58.635,229.052c0,2.333,0.141,4.724,0.437,7.243
		c-10.887,9.409-17.057,22.802-17.057,37.308c0,27.269,22.192,49.454,49.467,49.454h139.681c27.275,0,49.467-22.185,49.467-49.454
		c0-12.025-4.21-23.04-11.305-31.601c18.413-10.662,33.934-25.739,45.213-44.011l8.329-13.49L307.501,188.383z M13.043,95.58
		c0-12.378,10.064-22.449,22.443-22.449H46.27l1.067-5.109c2.77-13.22,14.589-22.809,28.098-22.809
		c8.978,0,17.256,4.165,22.674,11.208l-3.715,5.154h7.179h5.842c15.566,0,28.233,12.667,28.233,28.24
		c0,14.615-10.958,26.684-25.56,28.085c-0.72,0.084-1.472,0.116-2.224,0.122c-0.154,0-0.283,0.006-0.45,0.006H75.39H35.486
		C23.114,118.029,13.043,107.958,13.043,95.58z M231.164,310.21H91.489c-20.193,0-36.614-16.421-36.614-36.601
		c0-11.69,5.437-22.417,14.91-29.416l3.168-2.346l-0.656-3.888c-0.546-3.233-0.81-6.144-0.81-8.895
		c0-18.798,9.82-35.309,24.576-44.776c1.716-1.093,3.477-2.076,5.283-2.963c0.495-0.244,0.983-0.488,1.491-0.72
		c2.082-0.938,4.21-1.774,6.388-2.442c0.257-0.077,0.527-0.129,0.784-0.199c1.967-0.566,3.965-0.996,5.99-1.33
		c0.585-0.103,1.17-0.193,1.761-0.27c2.294-0.302,4.608-0.508,6.947-0.508c18.856,0,36.479,10.167,45.997,26.543l3.432,5.913
		l5.694-3.798c5.141-3.438,11.138-5.251,17.346-5.251c17.269,0,31.318,14.055,31.312,31.517v5.893l5.868,0.508
		c2.147,0.186,4.216,0.611,6.24,1.157c0.611,0.161,1.202,0.392,1.8,0.585c1.42,0.463,2.809,0.996,4.145,1.626
		c0.611,0.289,1.208,0.591,1.799,0.913c1.337,0.72,2.622,1.53,3.856,2.404c0.45,0.321,0.919,0.623,1.356,0.958
		c8.638,6.755,14.216,17.23,14.216,28.792C267.777,293.79,251.35,310.21,231.164,310.21z M259.287,232.876
		c-5.379-3.689-11.543-6.382-18.259-7.719c-0.983-8.046-4.158-15.412-8.882-21.536c-0.084-0.103-0.141-0.212-0.225-0.315
		c-0.572-0.72-1.189-1.401-1.793-2.082c-0.257-0.296-0.495-0.611-0.765-0.893c-0.392-0.411-0.823-0.797-1.228-1.202
		c-0.521-0.514-1.028-1.048-1.581-1.536c-0.109-0.096-0.219-0.174-0.321-0.264c-4.82-4.216-10.546-7.417-16.858-9.235
		c-0.572-0.161-1.163-0.27-1.735-0.405c-0.733-0.18-1.465-0.392-2.211-0.527c-0.463-0.09-0.945-0.129-1.42-0.199
		c-2.23-0.353-4.492-0.572-6.825-0.572c-6.562,0-12.963,1.44-18.818,4.203c-12.333-17.173-32.359-27.61-53.658-27.61
		c-2.468,0-4.897,0.161-7.294,0.424c-0.733,0.077-1.452,0.225-2.172,0.334c-1.671,0.244-3.336,0.514-4.968,0.88
		c-0.842,0.186-1.665,0.418-2.5,0.643c-1.504,0.398-2.995,0.835-4.454,1.337c-0.842,0.289-1.671,0.598-2.5,0.919
		c-1.465,0.572-2.892,1.202-4.3,1.864c-0.501,0.238-1.022,0.405-1.517,0.662c-1.273-3.348-2.288-6.472-3.123-9.531
		c-2.616-9.679-3.972-19.621-4.049-29.634h19.846c1.266,0,2.545-0.077,3.702-0.193c21.157-2.024,37.115-19.608,37.115-40.875
		c0-2.082-0.206-4.113-0.508-6.112c-0.051-0.373-0.103-0.746-0.167-1.112c-0.341-1.915-0.81-3.785-1.414-5.604
		c-0.103-0.308-0.225-0.611-0.334-0.919c-1.369-3.843-3.291-7.417-5.675-10.643c-0.096-0.129-0.186-0.257-0.283-0.386
		c-5.186-6.832-12.449-11.992-20.855-14.531c14.795-15.964,33.484-27.301,54.635-33.034c3.387-0.925,6.832-1.684,10.309-2.288
		c-20.951,29.062-27.79,65.766-18.239,101.023c14.094,51.993,61.531,88.305,115.349,88.305c4.46,0,8.933-0.257,13.374-0.758
		C284.95,215.71,272.938,225.601,259.287,232.876z"/>
</g>
<g>
</g>
<g>
</g>
<g>
</g>
<g>
</g>
<g>
</g>
<g>
</g>
<g>
</g>
<g>
</g>
<g>
</g>
<g>
</g>
<g>
</g>
<g>
</g>
<g>
</g>
<g>
</g>
<g>
</g>
</svg>
