<?xml version="1.0" encoding="iso-8859-1"?>
<!-- Generator: Adobe Illustrator 19.1.0, SVG Export Plug-In . SVG Version: 6.00 Build 0)  -->
<svg version="1.1" id="Capa_1" xmlns="http://www.w3.org/2000/svg" xmlns:xlink="http://www.w3.org/1999/xlink" x="0px" y="0px"
	 viewBox="0 0 313.533 313.533" style="enable-background:new 0 0 313.533 313.533;" xml:space="preserve">
<g>
	<path d="M253.405,224.027H20.433c-3.554,0-6.427-2.873-6.427-6.427s2.873-6.427,6.427-6.427h232.973
		c3.554,0,6.427,2.873,6.427,6.427S256.959,224.027,253.405,224.027z M303.213,247.433c0-3.554-2.873-6.427-6.427-6.427H55.78
		c-3.554,0-6.427,2.873-6.427,6.427s2.873,6.427,6.427,6.427h241.006C300.34,253.86,303.213,250.987,303.213,247.433z
		 M228.501,277.273c0-3.554-2.873-6.427-6.427-6.427H34.09c-3.554,0-6.427,2.873-6.427,6.427s2.873,6.427,6.427,6.427h187.985
		C225.629,283.7,228.501,280.821,228.501,277.273z M277.506,307.106c0-3.554-2.873-6.427-6.427-6.427H81.487
		c-3.554,0-6.427,2.873-6.427,6.427s2.873,6.427,6.427,6.427h189.592C274.633,313.533,277.506,310.66,277.506,307.106z
		 M224.176,85.792l31.524-8.959l-31.312-9.647l-8.959-31.504l-9.64,31.299l-31.517,8.953l31.312,9.653l8.953,31.511L224.176,85.792z
		 M278.174,135.407l21.903-7.16l-22.282-5.926l-7.172-21.896l-5.9,22.269l-21.909,7.172l22.282,5.913l7.159,21.896L278.174,135.407z
		 M131.597,17.262c-0.591,0.154-1.183,0.308-1.767,0.469C57.181,37.423,12.765,107.913,25.169,180.98h106.023
		c-7.577-12.474-13.336-25.939-17.211-40.219C102.433,98.118,109.078,53.863,131.597,17.262 M160.975,0
		c-33.471,35.431-48.266,86.91-34.583,137.399c5.842,21.556,16.324,40.573,29.988,56.44H14.687
		C-5.095,111.383,44.096,27.655,126.462,5.328C137.979,2.204,149.541,0.488,160.975,0L160.975,0z"/>
</g>
<g>
</g>
<g>
</g>
<g>
</g>
<g>
</g>
<g>
</g>
<g>
</g>
<g>
</g>
<g>
</g>
<g>
</g>
<g>
</g>
<g>
</g>
<g>
</g>
<g>
</g>
<g>
</g>
<g>
</g>
</svg>
