<?xml version="1.0" encoding="iso-8859-1"?>
<!-- Generator: Adobe Illustrator 19.1.0, SVG Export Plug-In . SVG Version: 6.00 Build 0)  -->
<svg version="1.1" id="Capa_1" xmlns="http://www.w3.org/2000/svg" xmlns:xlink="http://www.w3.org/1999/xlink" x="0px" y="0px"
	 viewBox="0 0 325.641 325.641" style="enable-background:new 0 0 325.641 325.641;" xml:space="preserve">
<g>
	<path d="M301.868,107.328c0.501-3.863,0.752-7.507,0.752-11.054c0-49.114-39.956-89.057-89.069-89.057
		c-29.409,0-57.032,14.769-73.536,38.934c-8.284-4.274-17.462-6.51-26.883-6.51c-30.482,0-55.618,23.349-58.458,53.323
		C23.137,98.356,0,125.388,0,157.991c0,36.414,29.634,66.042,66.055,66.042h193.538c36.414,0,66.049-29.628,66.049-66.042
		C325.648,138.183,317.036,119.931,301.868,107.328z M259.593,211.179H66.061c-29.332,0-53.201-23.863-53.201-53.188
		c0-27.777,20.868-50.534,48.548-52.938l5.855-0.771v-5.893c0-25.309,20.579-45.894,45.881-45.894
		c9.081,0,17.873,2.661,25.425,7.693l5.688,3.798l3.432-5.913c13.631-23.439,38.869-38.002,65.875-38.002
		c42.025,0,76.216,34.184,76.216,76.203c0,3.972-0.379,8.136-1.157,12.725l-0.656,3.895l3.175,2.339
		c13.76,10.167,21.652,25.752,21.652,42.745C312.794,187.317,288.931,211.179,259.593,211.179z M87.572,245.627l-0.206,66.389
		c-0.013,3.548-2.886,6.408-6.427,6.408c-0.006,0-0.013,0-0.019,0c-3.554-0.013-6.42-2.899-6.408-6.446l0.206-66.383
		c0.013-3.548,2.886-6.408,6.427-6.408c0.006,0,0.013,0,0.019,0C84.719,239.194,87.585,242.086,87.572,245.627z M130.773,245.601
		l-0.141,46.37c-0.013,3.548-2.886,6.408-6.427,6.408c-0.006,0-0.013,0-0.019,0c-3.554-0.013-6.42-2.898-6.408-6.446l0.141-46.37
		c0.013-3.548,2.886-6.408,6.427-6.408c0.006,0,0.013,0,0.019,0C127.92,239.168,130.786,242.054,130.773,245.601z M174.026,245.569
		l-0.212,66.383c-0.013,3.548-2.886,6.408-6.427,6.408h-0.013c-3.554-0.013-6.427-2.898-6.414-6.446l0.212-66.383
		c0.013-3.548,2.886-6.408,6.427-6.408c0.013,0,0.013,0,0.026,0C171.179,239.136,174.039,242.022,174.026,245.569z M217.233,245.544
		l-0.148,46.37c-0.013,3.548-2.886,6.408-6.427,6.408h-0.013c-3.554-0.013-6.427-2.899-6.414-6.446l0.148-46.37
		c0.013-3.554,2.699-6.645,6.44-6.408C214.367,239.11,217.246,241.996,217.233,245.544z M260.473,245.511l-0.199,66.383
		c-0.013,3.548-2.886,6.408-6.427,6.408c-0.013,0-0.013,0-0.026,0c-3.554-0.013-6.414-2.898-6.401-6.446l0.199-66.383
		c0.013-3.548,2.886-6.408,6.427-6.408c0.013,0,0.013,0,0.026,0C257.626,239.078,260.486,241.964,260.473,245.511z"/>
</g>
<g>
</g>
<g>
</g>
<g>
</g>
<g>
</g>
<g>
</g>
<g>
</g>
<g>
</g>
<g>
</g>
<g>
</g>
<g>
</g>
<g>
</g>
<g>
</g>
<g>
</g>
<g>
</g>
<g>
</g>
</svg>
