<?xml version="1.0" encoding="iso-8859-1"?>
<!-- Generator: Adobe Illustrator 19.1.0, SVG Export Plug-In . SVG Version: 6.00 Build 0)  -->
<svg version="1.1" id="Capa_1" xmlns="http://www.w3.org/2000/svg" xmlns:xlink="http://www.w3.org/1999/xlink" x="0px" y="0px"
	 viewBox="0 0 317.331 317.331" style="enable-background:new 0 0 317.331 317.331;" xml:space="preserve">
<g>
	<path d="M317.331,158.653c0,3.554-2.873,6.427-6.427,6.427h-33.979L303,191.153c2.513,2.513,2.513,6.575,0,9.088
		c-1.253,1.253-2.898,1.883-4.544,1.883c-1.645,0-3.291-0.63-4.544-1.883l-35.161-35.161h-88.954l44.075,76.344l49.127,13.162
		c3.426,0.919,5.463,4.441,4.544,7.873c-0.765,2.866-3.361,4.762-6.202,4.762c-0.553,0-1.112-0.071-1.671-0.219l-36.71-9.833
		l17.391,30.129c1.774,3.078,0.72,7.005-2.352,8.779c-1.009,0.585-2.114,0.861-3.207,0.861c-2.224,0-4.383-1.15-5.572-3.213
		l-16.986-29.416l-9.537,35.598c-0.765,2.866-3.361,4.762-6.202,4.762c-0.553,0-1.112-0.071-1.671-0.219
		c-3.426-0.919-5.463-4.441-4.544-7.873l12.867-48.015l-44.487-77.045l-44.069,76.331l13.169,49.127
		c0.925,3.426-1.118,6.954-4.544,7.873c-0.559,0.148-1.118,0.219-1.671,0.219c-2.834,0-5.431-1.889-6.202-4.762l-9.839-36.71
		l-17.391,30.129c-1.195,2.057-3.348,3.213-5.572,3.213c-1.093,0-2.198-0.276-3.207-0.861c-3.078-1.774-4.132-5.707-2.352-8.779
		l16.986-29.422l-35.598,9.537c-0.559,0.148-1.118,0.219-1.671,0.219c-2.834,0-5.437-1.889-6.202-4.762
		c-0.919-3.426,1.118-6.954,4.544-7.873l48.015-12.867l44.487-77.038H59.39l-35.958,35.945c-1.253,1.253-2.899,1.883-4.544,1.883
		s-3.291-0.63-4.544-1.883c-2.513-2.513-2.513-6.575,0-9.088l26.877-26.877H6.427C2.879,165.073,0,162.2,0,158.646
		c0-3.548,2.879-6.427,6.427-6.427h33.979l-26.061-26.054c-2.513-2.513-2.513-6.575,0-9.088s6.575-2.513,9.088,0l35.155,35.155
		h88.947l-44.062-76.332L54.345,62.739c-3.426-0.919-5.463-4.441-4.544-7.873c0.925-3.432,4.447-5.463,7.873-4.544l36.704,9.839
		L76.993,30.045c-1.774-3.078-0.72-7.005,2.352-8.779c3.066-1.774,6.999-0.726,8.779,2.352l16.993,29.422l9.537-35.618
		c0.919-3.432,4.454-5.476,7.873-4.544c3.426,0.919,5.463,4.441,4.544,7.873l-12.867,48.034l44.467,77.026l44.075-76.338
		l-13.162-49.12c-0.919-3.432,1.118-6.954,4.544-7.873c3.432-0.913,6.954,1.118,7.873,4.544l9.833,36.704l17.385-30.116
		c1.774-3.078,5.713-4.132,8.779-2.352c3.078,1.774,4.132,5.707,2.352,8.779l-16.993,29.435l35.618-9.55
		c3.438-0.919,6.947,1.112,7.873,4.544c0.925,3.426-1.118,6.954-4.544,7.873l-48.041,12.873l-44.467,77.026h88.157l35.958-35.958
		c2.513-2.513,6.575-2.513,9.088,0c2.513,2.513,2.513,6.575,0,9.088l-26.871,26.871h34.776
		C314.459,152.226,317.331,155.105,317.331,158.653z"/>
</g>
<g>
</g>
<g>
</g>
<g>
</g>
<g>
</g>
<g>
</g>
<g>
</g>
<g>
</g>
<g>
</g>
<g>
</g>
<g>
</g>
<g>
</g>
<g>
</g>
<g>
</g>
<g>
</g>
<g>
</g>
</svg>
