<?xml version="1.0" encoding="iso-8859-1"?>
<!-- Generator: Adobe Illustrator 19.1.0, SVG Export Plug-In . SVG Version: 6.00 Build 0)  -->
<svg version="1.1" id="Capa_1" xmlns="http://www.w3.org/2000/svg" xmlns:xlink="http://www.w3.org/1999/xlink" x="0px" y="0px"
	 viewBox="0 0 311.233 311.233" style="enable-background:new 0 0 311.233 311.233;" xml:space="preserve">
<g>
	<path d="M155.62,253.908c-54.204,0-98.292-44.088-98.292-98.292c0-54.191,44.088-98.279,98.292-98.279
		c54.185,0,98.273,44.088,98.273,98.279C253.892,209.814,209.804,253.908,155.62,253.908z M155.62,70.184
		c-47.109,0-85.438,38.323-85.438,85.425c0,47.115,38.33,85.438,85.438,85.438s85.419-38.33,85.419-85.438
		C241.039,108.508,202.728,70.184,155.62,70.184z M173.769,27.562l-0.116-0.154c0-0.006,0-0.039,0-0.039
		c0-5.264-13.483-27.314-18.053-27.359c-4.557-0.077-18.047,22.095-18.047,27.359c0,0,0.006,0.032,0.006,0.039l-0.096,0.154h0.109
		c0.148,8.136,8.149,14.73,18.027,14.73c9.91,0,17.905-6.594,18.04-14.73H173.769z M137.47,283.671l0.109,0.154c0,0,0,0.032,0,0.051
		c0,5.251,13.483,27.295,18.047,27.346c4.576,0.071,18.047-22.095,18.047-27.346c0-0.019,0-0.051,0-0.051l0.103-0.154h-0.116
		c-0.135-8.136-8.149-14.717-18.034-14.717c-9.897,0-17.892,6.581-18.021,14.717H137.47z M283.668,173.759l0.161-0.103
		c0,0,0.026,0,0.051,0c5.257,0,27.301-13.483,27.353-18.053c0.064-4.569-22.095-18.047-27.353-18.047
		c-0.026,0-0.051,0.006-0.051,0.006l-0.161-0.103v0.116c-8.124,0.135-14.711,8.149-14.711,18.027c0,9.897,6.587,17.905,14.711,18.04
		V173.759z M27.565,137.467l-0.161,0.116c-0.006,0-0.026,0-0.039,0c-5.257,0-27.314,13.477-27.365,18.047
		c-0.071,4.563,22.102,18.059,27.365,18.059c0.013,0,0.032-0.013,0.039-0.013l0.161,0.09v-0.103
		c8.136-0.148,14.724-8.162,14.724-18.034c0-9.897-6.588-17.892-14.724-18.034V137.467z M77.893,52.241l-0.174-0.039
		c-0.006-0.019-0.026-0.032-0.026-0.032c-3.728-3.721-28.85-9.775-32.121-6.588c-3.278,3.188,2.866,28.394,6.581,32.115
		c0.026,0.013,0.026,0.013,0.045,0.026l0.045,0.167l0.064-0.064c5.861,5.656,16.183,4.647,23.169-2.339
		c6.992-6.999,7.989-17.307,2.333-23.156L77.893,52.241z M233.339,258.986l0.174,0.045c0,0.019,0.026,0.032,0.026,0.051
		c3.728,3.702,28.844,9.775,32.108,6.562c3.291-3.188-2.847-28.394-6.575-32.096c0-0.032-0.026-0.032-0.039-0.032l-0.051-0.174
		l-0.064,0.064c-5.861-5.656-16.183-4.64-23.169,2.352c-6.992,6.986-7.982,17.288-2.32,23.149L233.339,258.986z M258.989,77.89
		l0.039-0.167c0.026-0.006,0.039-0.026,0.051-0.039c3.702-3.715,9.769-28.844,6.562-32.115c-3.175-3.265-28.381,2.866-32.096,6.588
		c-0.026,0.013-0.026,0.026-0.026,0.051l-0.174,0.039l0.064,0.064c-5.649,5.861-4.647,16.176,2.346,23.162
		c6.992,6.999,17.295,7.989,23.149,2.333L258.989,77.89z M52.244,233.336l-0.039,0.174c-0.013,0-0.026,0.032-0.026,0.032
		c-3.728,3.721-9.794,28.844-6.6,32.096c3.201,3.31,28.407-2.841,32.115-6.562c0.019,0,0.026-0.032,0.026-0.032l0.174-0.064
		l-0.064-0.051c5.656-5.861,4.64-16.196-2.352-23.175c-6.992-6.992-17.295-7.989-23.149-2.339L52.244,233.336z"/>
</g>
<g>
</g>
<g>
</g>
<g>
</g>
<g>
</g>
<g>
</g>
<g>
</g>
<g>
</g>
<g>
</g>
<g>
</g>
<g>
</g>
<g>
</g>
<g>
</g>
<g>
</g>
<g>
</g>
<g>
</g>
</svg>
