<!-- Generator: Adobe Illustrator 19.1.0, SVG Export Plug-In . SVG Version: 6.00 Build 0)  -->
<svg version="1.1" id="Capa_1" xmlns="http://www.w3.org/2000/svg" xmlns:xlink="http://www.w3.org/1999/xlink" x="0px" y="0px"
	 viewBox="0 0 325.641 325.641" style="enable-background:new 0 0 325.641 325.641;" xml:space="preserve">
<g>
	<path d="M128.987,30.103l0.077-0.122c0-0.006-0.006-0.032-0.006-0.032c0-4.107,10.514-21.389,14.062-21.324
		c3.567,0.039,14.068,17.224,14.068,21.324c0,0,0,0.026,0,0.032l0.09,0.122h-0.103c-0.109,6.337-6.337,11.478-14.062,11.478
		c-7.699,0-13.933-5.141-14.055-11.478C129.057,30.103,128.987,30.103,128.987,30.103z M43.169,143.987
		c0.006,0,0.026-0.006,0.032-0.006l0.129,0.071v-0.084c6.337-0.116,11.472-6.35,11.472-14.055c0-7.712-5.135-13.946-11.472-14.055
		v-0.096l-0.129,0.084c-0.006,0-0.026,0-0.032,0c-4.1,0-21.292,10.508-21.324,14.062C21.787,133.473,39.069,143.987,43.169,143.987z
		 M62.527,69.198l0.032,0.135l0.051-0.051C67.18,73.69,75.22,72.9,80.676,67.456c5.45-5.456,6.228-13.49,1.819-18.047l0.064-0.071
		l-0.135-0.032c-0.006-0.013-0.019-0.026-0.019-0.026c-2.905-2.899-22.487-7.622-25.039-5.135
		c-2.551,2.487,2.237,22.128,5.135,25.033C62.507,69.191,62.507,69.191,62.527,69.198z M205.588,67.443
		c5.45,5.456,13.484,6.228,18.04,1.819l0.077,0.064l0.026-0.135c0.013-0.006,0.026-0.019,0.039-0.032
		c2.886-2.892,7.622-22.481,5.122-25.033c-2.487-2.545-22.128,2.237-25.02,5.135c-0.026,0.013-0.026,0.019-0.026,0.039l-0.135,0.032
		l0.051,0.051C199.348,53.96,200.138,62,205.588,67.443z M325.641,250.968c0,36.421-29.634,66.049-66.049,66.049H66.055
		C29.634,317.017,0,287.389,0,250.968c0-32.603,23.137-59.635,54.68-65.027c1.189-12.552,6.318-23.908,14.081-32.905
		c-2.378-7.571-3.65-15.328-3.65-23.124c0-43.015,35.001-78.022,78.028-78.022c31.736,0,60.104,19.268,72.064,48.381
		c48.349,0.893,87.424,40.425,87.424,88.98c0,3.548-0.251,7.192-0.752,11.061C317.029,212.908,325.641,231.16,325.641,250.968z
		 M77.957,129.906c0,4.473,0.476,8.94,1.427,13.355c0.392-0.276,0.829-0.463,1.221-0.733c1.915-1.285,3.882-2.5,5.951-3.554
		c0.611-0.308,1.247-0.566,1.87-0.855c1.819-0.848,3.689-1.6,5.604-2.269c0.668-0.231,1.324-0.482,2.005-0.688
		c2.352-0.72,4.769-1.273,7.23-1.69c0.611-0.103,1.228-0.18,1.845-0.264c2.629-0.366,5.289-0.611,8.021-0.611
		c9.415,0,18.593,2.237,26.877,6.504c2.012-2.95,4.21-5.72,6.517-8.374c0.283-0.321,0.591-0.617,0.88-0.932
		c2.102-2.352,4.319-4.576,6.639-6.677c0.283-0.257,0.572-0.495,0.861-0.746c2.41-2.127,4.936-4.113,7.552-5.951
		c0.231-0.161,0.463-0.321,0.694-0.482c2.725-1.877,5.54-3.599,8.458-5.161c0.186-0.103,0.373-0.206,0.559-0.308
		c2.988-1.568,6.048-2.982,9.21-4.203c0.148-0.058,0.302-0.135,0.456-0.193c6.292-2.391,12.86-4.139,19.666-5.051
		c-10.868-22.005-33.387-36.292-58.368-36.292C107.193,64.738,77.957,93.973,77.957,129.906z M312.788,250.968
		c0-16.999-7.899-32.578-21.652-42.745l-3.175-2.346l0.656-3.888c0.778-4.602,1.157-8.766,1.157-12.732
		c0-41.999-34.152-76.171-76.158-76.203l-0.219,0.006c-1.742,0.006-3.445,0.225-5.167,0.347c-2.012,0.135-4.03,0.283-6.009,0.578
		c-1.697,0.264-3.348,0.643-5.013,1.015c-1.395,0.302-2.796,0.566-4.152,0.938c-2.494,0.707-4.929,1.562-7.327,2.513
		c-0.501,0.193-1.015,0.347-1.51,0.553c-15.09,6.343-28.06,17.475-36.537,32.051l-3.432,5.906l-5.688-3.792
		c-7.552-5.032-16.343-7.693-25.425-7.693c-1.575,0-3.123,0.084-4.659,0.238c-0.206,0.019-0.405,0.071-0.604,0.09
		c-22.822,2.622-40.611,22.044-40.611,45.566v5.893l-5.861,0.771c-27.218,2.359-48.542,25.617-48.542,52.944
		c0,29.332,23.869,53.195,53.201,53.195h193.538C288.925,304.163,312.788,280.3,312.788,250.968z"/>
</g>
<g>
</g>
<g>
</g>
<g>
</g>
<g>
</g>
<g>
</g>
<g>
</g>
<g>
</g>
<g>
</g>
<g>
</g>
<g>
</g>
<g>
</g>
<g>
</g>
<g>
</g>
<g>
</g>
<g>
</g>
</svg>
