<!-- Generator: Adobe Illustrator 19.1.0, SVG Export Plug-In . SVG Version: 6.00 Build 0)  -->
<svg version="1.1" id="Capa_1" xmlns="http://www.w3.org/2000/svg" xmlns:xlink="http://www.w3.org/1999/xlink" x="0px" y="0px"
	 viewBox="0 0 330.738 330.738" style="enable-background:new 0 0 330.738 330.738;" xml:space="preserve">
<g>
	<path d="M146.095,35.402l0.077-0.129c0-0.006-0.006-0.032-0.006-0.032c0-4.306,11.022-22.417,14.743-22.359
		c3.734,0.045,14.75,18.053,14.75,22.359c0,0,0,0.026,0,0.032l0.096,0.129h-0.109c-0.116,6.639-6.639,12.031-14.737,12.031
		c-8.072,0-14.595-5.392-14.73-12.031H146.095z M265.518,154.729v0.096l0.135-0.09c0.006,0,0.026,0,0.039,0
		c4.293,0,22.314-11.009,22.346-14.743c0.051-3.728-18.053-14.743-22.346-14.743c-0.013,0-0.032,0.006-0.039,0.006l-0.135-0.077
		v0.084c-6.639,0.129-12.018,6.658-12.018,14.73C253.5,148.077,258.879,154.62,265.518,154.729z M56.318,125.281v-0.103
		l-0.135,0.084c-0.006,0-0.026,0-0.032,0c-4.3,0-22.314,11.016-22.359,14.743c-0.058,3.728,18.059,14.75,22.359,14.75
		c0.006,0,0.026-0.006,0.032-0.006l0.135,0.077v-0.09c6.639-0.122,12.025-6.658,12.025-14.73
		C68.343,131.927,62.957,125.397,56.318,125.281z M226.379,74.542c5.713,5.72,14.133,6.53,18.908,1.909l0.071,0.064l0.039-0.135
		c0.013-0.006,0.026-0.019,0.032-0.032c3.027-3.033,7.982-23.561,5.366-26.234c-2.596-2.667-23.182,2.346-26.215,5.386
		c-0.026,0.013-0.032,0.019-0.032,0.039l-0.148,0.026l0.058,0.051C219.843,60.409,220.665,68.828,226.379,74.542z M97.283,224.493
		l0.141-0.051l-0.051-0.039c4.621-4.794,3.785-13.233-1.922-18.927c-5.72-5.726-14.126-6.53-18.908-1.909l-0.077-0.077l-0.026,0.148
		c-0.013,0-0.026,0.026-0.026,0.026c-3.046,3.04-8.001,23.561-5.392,26.221c2.609,2.699,23.201-2.333,26.234-5.373
		C97.277,224.518,97.283,224.493,97.283,224.493z M330.738,273.6c0,27.269-22.192,49.454-49.467,49.454H141.596
		c-27.275,0-49.467-22.185-49.467-49.454c0-23.946,16.671-43.87,39.602-48.439c0.36-2.924,1.028-5.758,1.934-8.477
		c-32.256-11.408-54.21-41.942-54.21-76.679c0-11.71,2.545-23.207,7.404-33.799H35.303C15.836,106.207,0,90.371,0,70.904
		s15.836-35.303,35.303-35.303h0.688C41.729,19.149,57.475,7.683,75.245,7.683c13.085,0,25.187,6.061,33.034,16.376
		c20.354,0.521,37.038,15.926,39.634,35.714c4.364-0.726,8.715-1.221,12.995-1.221c44.911,0,81.454,36.543,81.454,81.46
		c0,8.124-1.318,16.048-3.689,23.728c3.078-0.443,6.195-0.746,9.357-0.746c36.44,0,66.081,29.634,66.081,66.061
		c0,2.339-0.141,4.73-0.443,7.256C324.427,245.65,330.738,259.32,330.738,273.6z M35.303,93.353h58.812h13.111
		c0.174,0,0.302-0.006,0.463-0.006c0.752-0.006,1.497-0.039,2.217-0.122c1.761-0.167,3.464-0.508,5.103-0.97
		c0.964-0.276,1.87-0.688,2.796-1.067c0.611-0.244,1.247-0.437,1.832-0.72c1.266-0.623,2.461-1.362,3.612-2.166
		c0.161-0.109,0.347-0.199,0.508-0.315c6.523-4.756,10.887-12.262,11.491-20.874l0.167-2.41
		c-0.244-15.36-12.77-27.796-28.188-27.796h-5.836l-1.896-2.988c-5.302-8.381-14.37-13.381-24.242-13.381
		c-13.516,0-25.328,9.589-28.098,22.809l-1.067,5.109H35.303c-12.378,0-22.449,10.071-22.449,22.449S22.931,93.353,35.303,93.353z
		 M140.208,204.184c0.527-0.701,1.08-1.388,1.645-2.057c0.463-0.546,0.913-1.105,1.401-1.626c0.945-1.009,1.928-1.992,2.963-2.911
		c0.521-0.456,1.073-0.874,1.607-1.305c0.675-0.553,1.362-1.093,2.076-1.607c0.572-0.405,1.15-0.797,1.742-1.183
		c0.797-0.514,1.613-0.996,2.442-1.465c0.514-0.283,1.009-0.585,1.536-0.848c1.343-0.688,2.731-1.311,4.152-1.857
		c0.308-0.122,0.636-0.206,0.945-0.321c1.195-0.424,2.404-0.81,3.638-1.138c0.482-0.129,0.97-0.231,1.459-0.347
		c1.138-0.257,2.294-0.463,3.464-0.636c0.463-0.071,0.932-0.141,1.401-0.199c1.607-0.174,3.233-0.296,4.891-0.296
		c6.562,0,12.956,1.44,18.811,4.197c1.735-2.41,3.644-4.653,5.662-6.78c0.476-0.501,0.99-0.945,1.478-1.433
		c1.632-1.626,3.336-3.175,5.116-4.614c0.559-0.45,1.131-0.874,1.71-1.298c1.915-1.452,3.901-2.789,5.964-4.017
		c0.443-0.27,0.887-0.54,1.343-0.797c2.551-1.446,5.186-2.744,7.905-3.843c3.959-8.843,5.964-18.194,5.964-27.815
		c0-37.828-30.772-68.606-68.6-68.606c-4.364,0-8.824,0.469-13.31,1.375c-2.468,13.259-11.26,24.261-23.31,29.724
		c-0.116,0.051-0.225,0.103-0.341,0.154c-1.877,0.829-3.811,1.53-5.829,2.076c-0.231,0.064-0.456,0.109-0.688,0.167
		c-2.024,0.514-4.094,0.919-6.234,1.118c-1.176,0.129-2.436,0.193-3.702,0.193h-6.228c-5.874,10.328-8.972,21.941-8.972,33.799
		c0,29.788,19.171,55.92,47.167,65.104C139.7,204.788,139.97,204.505,140.208,204.184z M317.884,273.6
		c0-11.69-5.437-22.417-14.904-29.409l-3.175-2.346l0.656-3.888c0.546-3.233,0.81-6.144,0.81-8.901
		c0-29.338-23.882-53.208-53.227-53.208c-6.208,0-12.243,1.202-17.944,3.265c-1.35,0.488-2.68,1.015-3.972,1.607
		c-0.27,0.122-0.521,0.264-0.791,0.392c-2.063,0.97-4.049,2.095-5.964,3.323c-0.758,0.482-1.51,0.97-2.249,1.491
		c-0.784,0.566-1.555,1.144-2.307,1.742c-1.163,0.932-2.288,1.902-3.368,2.931c-0.495,0.469-0.977,0.938-1.459,1.433
		c-1.195,1.215-2.333,2.506-3.406,3.85c-0.373,0.45-0.726,0.919-1.08,1.382c-1.228,1.645-2.41,3.336-3.458,5.135l-3.432,5.906
		l-5.688-3.792c-5.148-3.432-11.151-5.244-17.352-5.244c-1.922,0-3.779,0.231-5.598,0.566c-0.476,0.09-0.945,0.186-1.414,0.296
		c-1.716,0.398-3.393,0.887-4.987,1.549c-0.071,0.032-0.141,0.045-0.212,0.077c-1.703,0.72-3.31,1.632-4.839,2.629
		c-0.315,0.206-0.623,0.424-0.932,0.643c-1.382,0.977-2.693,2.037-3.895,3.22c-0.109,0.103-0.225,0.186-0.321,0.296
		c-1.305,1.311-2.468,2.751-3.522,4.267c-0.199,0.296-0.379,0.604-0.572,0.906c-3.143,4.884-5.019,10.662-5.019,16.89l0.656,6.485
		l-6.517,0.109c-19.043,1.652-33.407,17.307-33.407,36.427c0,20.187,16.427,36.601,36.614,36.601h139.674
		C301.464,310.201,317.884,293.78,317.884,273.6z"/>
</g>
<g>
</g>
<g>
</g>
<g>
</g>
<g>
</g>
<g>
</g>
<g>
</g>
<g>
</g>
<g>
</g>
<g>
</g>
<g>
</g>
<g>
</g>
<g>
</g>
<g>
</g>
<g>
</g>
<g>
</g>
</svg>
