<?xml version="1.0" encoding="iso-8859-1"?>
<!-- Generator: Adobe Illustrator 19.1.0, SVG Export Plug-In . SVG Version: 6.00 Build 0)  -->
<svg version="1.1" id="Capa_1" xmlns="http://www.w3.org/2000/svg" xmlns:xlink="http://www.w3.org/1999/xlink" x="0px" y="0px"
	 viewBox="0 0 325.641 325.641" style="enable-background:new 0 0 325.641 325.641;" xml:space="preserve">
<g>
	<path d="M301.868,106.901c0.501-3.863,0.752-7.507,0.752-11.061c0-49.107-39.956-89.057-89.069-89.057
		c-29.409,0-57.032,14.769-73.536,38.94c-8.284-4.28-17.455-6.523-26.877-6.523c-30.482,0-55.618,23.355-58.458,53.33
		C23.137,97.929,0,124.96,0,157.557c0,36.414,29.634,66.042,66.055,66.042h76.184l-19.345,38.272h40.81l-26.806,56.987
		l75.862-71.119l-40.521,0.039l14.023-24.178h73.33c36.414,0,66.049-29.628,66.049-66.042
		C325.648,137.743,317.036,119.497,301.868,106.901z M259.593,210.752H66.061c-29.332,0-53.201-23.863-53.201-53.188
		c0-27.783,20.868-50.541,48.548-52.944l5.855-0.771v-5.893c0-25.309,20.579-45.894,45.881-45.894
		c9.081,0,17.873,2.661,25.425,7.699l5.688,3.792l3.432-5.913c13.631-23.439,38.869-38.002,65.875-38.002
		c42.025,0,76.216,34.184,76.216,76.203c0,3.972-0.379,8.143-1.157,12.732l-0.656,3.888l3.175,2.346
		c13.76,10.167,21.652,25.746,21.652,42.745C312.794,186.889,288.931,210.752,259.593,210.752z"/>
</g>
<g>
</g>
<g>
</g>
<g>
</g>
<g>
</g>
<g>
</g>
<g>
</g>
<g>
</g>
<g>
</g>
<g>
</g>
<g>
</g>
<g>
</g>
<g>
</g>
<g>
</g>
<g>
</g>
<g>
</g>
</svg>
