<?xml version="1.0" encoding="UTF-8" standalone="no"?>
<!-- Created with Inkscape (http://www.inkscape.org/) -->

<svg
   xmlns:dc="http://purl.org/dc/elements/1.1/"
   xmlns:cc="http://creativecommons.org/ns#"
   xmlns:rdf="http://www.w3.org/1999/02/22-rdf-syntax-ns#"
   xmlns:svg="http://www.w3.org/2000/svg"
   xmlns="http://www.w3.org/2000/svg"
   xmlns:sodipodi="http://sodipodi.sourceforge.net/DTD/sodipodi-0.dtd"
   xmlns:inkscape="http://www.inkscape.org/namespaces/inkscape"
   width="800"
   height="600"
   viewBox="0 0 800.00001 600.00001"
   id="svg2"
   version="1.1"
   inkscape:version="0.91 r13725"
   sodipodi:docname="dhcp_error.svg"
   inkscape:export-filename="/home/david/little_projects/epd/wifi_display/media/dhcp_error.png"
   inkscape:export-xdpi="90"
   inkscape:export-ydpi="90">
  <defs
     id="defs4" />
  <sodipodi:namedview
     id="base"
     pagecolor="#ffffff"
     bordercolor="#666666"
     borderopacity="1.0"
     inkscape:pageopacity="1"
     inkscape:pageshadow="2"
     inkscape:zoom="0.7"
     inkscape:cx="117.85714"
     inkscape:cy="257.60122"
     inkscape:document-units="px"
     inkscape:current-layer="layer1"
     showgrid="false"
     units="px"
     inkscape:window-width="1920"
     inkscape:window-height="1007"
     inkscape:window-x="0"
     inkscape:window-y="25"
     inkscape:window-maximized="1" />
  <metadata
     id="metadata7">
    <rdf:RDF>
      <cc:Work
         rdf:about="">
        <dc:format>image/svg+xml</dc:format>
        <dc:type
           rdf:resource="http://purl.org/dc/dcmitype/StillImage" />
        <dc:title />
      </cc:Work>
    </rdf:RDF>
  </metadata>
  <g
     inkscape:label="Capa 1"
     inkscape:groupmode="layer"
     id="layer1"
     transform="translate(0,-452.36216)">
    <text
       xml:space="preserve"
       style="font-style:normal;font-weight:normal;font-size:48.63484955px;line-height:125%;font-family:Sans;letter-spacing:0px;word-spacing:0px;fill:#000000;fill-opacity:1;stroke:none;stroke-width:1px;stroke-linecap:butt;stroke-linejoin:miter;stroke-opacity:1"
       x="401.74347"
       y="869.24561"
       id="text4214"
       sodipodi:linespacing="125%"><tspan
         sodipodi:role="line"
         x="401.74347"
         y="869.24561"
         style="font-style:normal;font-variant:normal;font-weight:bold;font-stretch:normal;font-size:70px;font-family:'DejaVu Sans';-inkscape-font-specification:'DejaVu Sans Bold';text-align:center;text-anchor:middle"
         id="tspan4256">DHCP error</tspan><tspan
         sodipodi:role="line"
         x="401.74347"
         y="935.44989"
         style="font-style:normal;font-variant:normal;font-weight:normal;font-stretch:normal;font-family:'DejaVu Sans';-inkscape-font-specification:'DejaVu Sans';text-align:center;text-anchor:middle"
         id="tspan4254">Could not get an IP address</tspan></text>
    <g
       id="g4214"
       transform="matrix(3.8187453,0,0,3.8187453,301.25345,565.04609)">
      <g
         id="g4159">
        <g
           id="_x33_8_89_">
          <g
             id="g4162">
            <path
               id="path4164"
               d="m 7.452,24.152 3.435,0 0,5.701 0.633,0 c 0.001,0 0.001,0 0.002,0 l 0.636,0 0,-5.701 3.51,0 0,-1.059 17.124,0 0,1.104 3.178,0 0,5.656 0.619,0 c 0,0 0,0 0.002,0 l 0.619,0 0,-5.656 3.736,0 0,-0.856 c 0,-0.012 0.006,-0.021 0.006,-0.032 0,-0.072 0,-0.143 0,-0.215 l 5.721,0 0,-1.316 -5.721,0 c 0,-0.054 0,-0.108 0,-0.164 0,-0.011 -0.006,-0.021 -0.006,-0.032 l 0,-0.832 -8.154,0 0,1.028 -7.911,0 0,-2.652 -0.689,0 c -0.001,0 -0.001,0 -0.002,0 l -0.678,0 0,2.652 -7.846,0 0,-1.104 -8.214,0 0,1.104 -6.338,0 0,1.316 6.338,0 0,1.058 z"
               inkscape:connector-curvature="0" />
            <path
               id="path4166"
               d="m 21.484,16.849 5.204,0 0,-2.611 7.133,0 0,-12.683 -19.233,0 0,12.683 6.896,0 0,2.611 z m -4.947,-4.561 0,-8.783 15.335,0 0,8.783 -15.335,0 z"
               inkscape:connector-curvature="0" />
            <rect
               id="rect4168"
               height="0.537"
               width="10.809"
               y="16.898001"
               x="18.681999" />
            <path
               id="path4170"
               d="m 0,43.971 6.896,0 0,2.611 5.204,0 0,-2.611 7.134,0 0,-12.684 -19.234,0 0,12.684 z m 1.95,-10.735 15.334,0 0,8.785 -15.334,0 0,-8.785 z"
               inkscape:connector-curvature="0" />
            <rect
               id="rect4172"
               height="0.537"
               width="10.808"
               y="46.631001"
               x="4.0949998" />
            <path
               id="path4174"
               d="m 29.491,30.994 0,12.684 6.895,0 0,2.611 5.205,0 0,-2.611 7.133,0 0,-12.684 -19.233,0 z m 17.283,10.735 -15.334,0 0,-8.783 15.334,0 0,8.783 z"
               inkscape:connector-curvature="0" />
            <rect
               id="rect4176"
               height="0.537"
               width="10.809"
               y="46.338001"
               x="33.584" />
          </g>
        </g>
      </g>
      <g
         id="g4178" />
      <g
         id="g4180" />
      <g
         id="g4182" />
      <g
         id="g4184" />
      <g
         id="g4186" />
      <g
         id="g4188" />
      <g
         id="g4190" />
      <g
         id="g4192" />
      <g
         id="g4194" />
      <g
         id="g4196" />
      <g
         id="g4198" />
      <g
         id="g4200" />
      <g
         id="g4202" />
      <g
         id="g4204" />
      <g
         id="g4206" />
    </g>
    <flowRoot
       xml:space="preserve"
       id="flowRoot4246"
       style="fill:black;stroke:none;stroke-opacity:1;stroke-width:1px;stroke-linejoin:miter;stroke-linecap:butt;fill-opacity:1;font-family:Sans;font-style:normal;font-weight:normal;font-size:40px;line-height:125%;letter-spacing:0px;word-spacing:0px"><flowRegion
         id="flowRegion4248"><rect
           id="rect4250"
           width="967.14288"
           height="240"
           x="-125.71429"
           y="351.42856" /></flowRegion><flowPara
         id="flowPara4252" /></flowRoot>  </g>
</svg>
