<?xml version="1.0" encoding="UTF-8" standalone="no"?>
<!-- Created with Inkscape (http://www.inkscape.org/) -->

<svg
   xmlns:dc="http://purl.org/dc/elements/1.1/"
   xmlns:cc="http://creativecommons.org/ns#"
   xmlns:rdf="http://www.w3.org/1999/02/22-rdf-syntax-ns#"
   xmlns:svg="http://www.w3.org/2000/svg"
   xmlns="http://www.w3.org/2000/svg"
   xmlns:sodipodi="http://sodipodi.sourceforge.net/DTD/sodipodi-0.dtd"
   xmlns:inkscape="http://www.inkscape.org/namespaces/inkscape"
   width="800"
   height="600"
   viewBox="0 0 800.00001 600.00001"
   id="svg2"
   version="1.1"
   inkscape:version="0.91 r13725"
   sodipodi:docname="invalid_image.svg"
   inkscape:export-filename="/home/david/little_projects/epd/wifi_display/media/invalid_image.png"
   inkscape:export-xdpi="90"
   inkscape:export-ydpi="90">
  <defs
     id="defs4" />
  <sodipodi:namedview
     id="base"
     pagecolor="#ffffff"
     bordercolor="#666666"
     borderopacity="1.0"
     inkscape:pageopacity="1"
     inkscape:pageshadow="2"
     inkscape:zoom="0.810625"
     inkscape:cx="424.59084"
     inkscape:cy="386.0802"
     inkscape:document-units="px"
     inkscape:current-layer="layer1"
     showgrid="false"
     units="px"
     inkscape:window-width="1920"
     inkscape:window-height="1007"
     inkscape:window-x="0"
     inkscape:window-y="25"
     inkscape:window-maximized="1" />
  <metadata
     id="metadata7">
    <rdf:RDF>
      <cc:Work
         rdf:about="">
        <dc:format>image/svg+xml</dc:format>
        <dc:type
           rdf:resource="http://purl.org/dc/dcmitype/StillImage" />
        <dc:title />
      </cc:Work>
    </rdf:RDF>
  </metadata>
  <g
     inkscape:label="Capa 1"
     inkscape:groupmode="layer"
     id="layer1"
     transform="translate(0,-452.36216)">
    <text
       xml:space="preserve"
       style="font-style:normal;font-weight:normal;font-size:48.63484955px;line-height:125%;font-family:Sans;letter-spacing:0px;word-spacing:0px;fill:#000000;fill-opacity:1;stroke:none;stroke-width:1px;stroke-linecap:butt;stroke-linejoin:miter;stroke-opacity:1"
       x="401.74347"
       y="869.24561"
       id="text4214"
       sodipodi:linespacing="125%"><tspan
         sodipodi:role="line"
         x="401.74347"
         y="869.24561"
         style="font-style:normal;font-variant:normal;font-weight:bold;font-stretch:normal;font-size:70px;font-family:'DejaVu Sans';-inkscape-font-specification:'DejaVu Sans Bold';text-align:center;text-anchor:middle"
         id="tspan4256">Invalid image</tspan><tspan
         sodipodi:role="line"
         x="401.74347"
         y="931.8269"
         style="font-style:normal;font-variant:normal;font-weight:normal;font-stretch:normal;font-size:45px;font-family:'DejaVu Sans';-inkscape-font-specification:'DejaVu Sans';text-align:center;text-anchor:middle"
         id="tspan4254">Format mismatch!</tspan></text>
    <g
       id="g4205"
       transform="matrix(12.213333,0,0,12.213333,273.10138,545.00539)">
      <g
         id="g4161">
        <g
           id="g4163">
          <path
             id="path4165"
             d="m 18.881,3.617 c 0.273,-0.019 0.486,-0.246 0.486,-0.52 l 0,-1.621 c 0,-0.288 -0.233,-0.521 -0.521,-0.521 l -1.895,0 c -0.288,0 -0.521,0.233 -0.521,0.521 0,0.521 -0.5,0.944 -1.114,0.944 -0.613,0 -1.113,-0.423 -1.113,-0.944 0,-0.288 -0.233,-0.521 -0.521,-0.521 l -2.475,0 c -0.255,0 -0.472,0.185 -0.514,0.437 C 10.616,1.856 10.145,2.206 9.595,2.206 9.046,2.206 8.574,1.856 8.497,1.392 8.456,1.14 8.238,0.955 7.983,0.955 l -2.515,0 C 5.213,0.955 4.995,1.14 4.954,1.392 4.877,1.856 4.405,2.206 3.856,2.206 3.307,2.206 2.835,1.856 2.759,1.392 2.718,1.139 2.5,0.955 2.245,0.955 l -1.724,0 C 0.234,0.955 0,1.188 0,1.476 l 0,1.621 c 0,0.143 0.059,0.279 0.162,0.377 0.104,0.099 0.245,0.152 0.386,0.143 0.012,0 0.081,-0.008 0.092,-0.009 0.614,0 1.114,0.423 1.114,0.944 0,0.519 -0.497,0.941 -1.117,0.941 -0.001,0 -0.003,0 -0.004,0 C 0.624,5.493 0.57,5.486 0.561,5.485 0.419,5.476 0.273,5.525 0.167,5.622 0.061,5.722 0,5.86 0,6.005 l 0,2.216 c 0,0.273 0.212,0.501 0.486,0.52 0.578,0.039 1.03,0.448 1.03,0.935 0,0.485 -0.452,0.896 -1.029,0.933 C 0.213,10.628 0,10.854 0,11.13 l 0,2.234 c 0,0.274 0.212,0.501 0.486,0.52 0.578,0.038 1.03,0.448 1.03,0.934 0,0.486 -0.452,0.897 -1.029,0.935 C 0.213,15.771 0,15.998 0,16.273 l 0,1.622 c 0,0.288 0.233,0.521 0.521,0.521 l 2.383,0 c 0.003,0 0.007,0 0.01,0 0.288,0 0.521,-0.232 0.521,-0.521 0,-0.041 -0.005,-0.082 -0.014,-0.12 0.04,-0.491 0.523,-0.88 1.112,-0.88 0.605,0 1.099,0.411 1.114,0.92 -0.002,0.023 -0.005,0.052 -0.005,0.066 -0.004,0.141 0.05,0.276 0.147,0.377 0.097,0.101 0.232,0.157 0.373,0.157 l 2.474,0 c 0.264,0 0.485,-0.196 0.517,-0.458 0.059,-0.483 0.532,-0.849 1.101,-0.849 0.568,0 1.041,0.365 1.1,0.849 0.031,0.262 0.253,0.458 0.516,0.458 l 2.507,0 c 0.264,0 0.485,-0.196 0.517,-0.458 0.059,-0.483 0.531,-0.849 1.101,-0.849 0.568,0 1.041,0.365 1.101,0.849 0.032,0.262 0.253,0.458 0.518,0.458 l 1.235,0 c 0.288,0 0.521,-0.232 0.521,-0.521 l 0,-1.622 c 0,-0.145 -0.061,-0.283 -0.167,-0.382 -0.106,-0.099 -0.248,-0.146 -0.394,-0.138 -0.009,10e-4 -0.07,0.01 -0.079,0.01 -0.614,0 -1.114,-0.423 -1.114,-0.944 0,-0.518 0.498,-0.941 1.117,-0.941 0,0 0.002,0 0.003,0 0.012,0.002 0.074,0.008 0.086,0.009 0.156,0.007 0.282,-0.045 0.386,-0.144 0.104,-0.099 0.162,-0.234 0.162,-0.377 l 0,-2.216 c 0,-0.275 -0.213,-0.502 -0.487,-0.521 -0.577,-0.038 -1.028,-0.448 -1.028,-0.934 0,-0.486 0.451,-0.896 1.029,-0.935 0.273,-0.018 0.486,-0.246 0.486,-0.52 l 0,-2.234 C 19.37,5.73 19.157,5.503 18.883,5.485 18.306,5.447 17.855,5.037 17.855,4.551 17.852,4.065 18.303,3.655 18.881,3.617 Z m -2.509,11.974 -13.31,0 0,-11.814 13.31,0 c 0,0 0,11.814 0,11.814 z"
             style="fill:#030104"
             inkscape:connector-curvature="0" />
          <path
             id="path4167"
             d="m 7.908,9.684 -1.5,1.5 c -0.208,0.208 -0.208,0.547 0,0.754 l 0.99,0.991 c 0.209,0.209 0.547,0.209 0.755,0 l 1.5,-1.499 1.5,1.499 c 0.208,0.209 0.546,0.208 0.755,0 l 0.99,-0.991 c 0.209,-0.207 0.208,-0.546 0,-0.754 l -1.5,-1.5 1.5,-1.5 c 0.209,-0.209 0.209,-0.546 0,-0.755 l -0.99,-0.99 c -0.209,-0.208 -0.546,-0.208 -0.755,0 l -1.5,1.5 -1.5,-1.5 C 7.945,6.231 7.607,6.231 7.398,6.439 l -0.99,0.99 C 6.2,7.637 6.2,7.974 6.408,8.184 l 1.5,1.5 z"
             style="fill:#030104"
             inkscape:connector-curvature="0" />
        </g>
      </g>
      <g
         id="g4169" />
      <g
         id="g4171" />
      <g
         id="g4173" />
      <g
         id="g4175" />
      <g
         id="g4177" />
      <g
         id="g4179" />
      <g
         id="g4181" />
      <g
         id="g4183" />
      <g
         id="g4185" />
      <g
         id="g4187" />
      <g
         id="g4189" />
      <g
         id="g4191" />
      <g
         id="g4193" />
      <g
         id="g4195" />
      <g
         id="g4197" />
    </g>
    <flowRoot
       xml:space="preserve"
       id="flowRoot4246"
       style="fill:black;stroke:none;stroke-opacity:1;stroke-width:1px;stroke-linejoin:miter;stroke-linecap:butt;fill-opacity:1;font-family:Sans;font-style:normal;font-weight:normal;font-size:40px;line-height:125%;letter-spacing:0px;word-spacing:0px"><flowRegion
         id="flowRegion4248"><rect
           id="rect4250"
           width="967.14288"
           height="240"
           x="-125.71429"
           y="351.42856" /></flowRegion><flowPara
         id="flowPara4252" /></flowRoot>  </g>
</svg>
